<svg xmlns="http://www.w3.org/2000/svg" viewBox="1067 333 158 31" role="img" aria-label="PULSE"><path d="M1100.06 344.957C1100.13 351.095 1092.46 354.394 1085.12 356.133C1081.47 356.878 1077.39 359.929 1074.16 360.106C1068.94 359.574 1071.71 352.159 1071.89 349.534C1072.6 346.057 1072.67 342.19 1075.04 339.032C1081.18 331.121 1100.31 336.407 1100.06 344.744V344.957ZM1089.41 345.489C1089.59 343.361 1087 341.055 1083.77 341.338C1081.68 341.48 1081.32 343.183 1081.08 344.957C1080.86 346.625 1080.65 348.541 1082.42 349.108C1085.58 349.995 1089.52 348.008 1089.41 345.667V345.489ZM1129.84 335.165L1129.98 335.201C1132.18 336.336 1132.07 339.174 1131.4 342.296C1129.98 346.731 1134.56 357.587 1129.2 358.9C1125.44 359.787 1124.73 357.268 1118.06 359.219C1102.91 363.654 1098.05 341.09 1105.57 335.449C1111.43 333.178 1109.58 344.07 1112.1 346.163C1113.31 347.795 1115.29 348.47 1117.17 347.725C1121.47 346.802 1124.8 334.349 1129.84 335.165ZM1160.13 356.168L1160.2 356.275C1160.48 359.432 1150.72 359.858 1147.14 359.929C1143.03 359.929 1138.48 359.432 1135.75 357.02C1132.38 353.933 1134.3 349.357 1135.89 345.596C1137.74 341.835 1139.73 336.478 1145.47 335.236C1152.78 334.81 1148.13 342.58 1147.64 345.631C1147.03 348.363 1147.74 350.598 1150.62 352.017C1153.56 353.72 1158.42 353.862 1160.13 356.168ZM1188.41 337.826V337.897C1187.7 339.777 1182.2 339.813 1180.75 341.374C1178.05 344.531 1190.29 348.363 1190.33 352.727C1190.64 359.929 1173.62 360.993 1166.24 358.9C1164 358.333 1160.63 356.381 1163.22 354.82C1165.17 353.685 1168.79 353.578 1170.99 352.656C1176.31 350.031 1165.6 346.234 1164.82 343.112C1161.98 335.378 1177.23 334.136 1184.26 335.733C1186.64 336.23 1188.34 337.081 1188.41 337.826ZM1220.99 337.542C1220.75 338.394 1219.4 338.819 1218.37 339.174C1215.28 340.132 1211.34 340.593 1208.65 341.942C1207.33 342.545 1205.99 343.893 1207.44 344.851C1209.64 346.199 1213.54 345.773 1216.06 346.483C1219.04 347.263 1218.05 349.037 1215.42 349.924C1214.32 350.705 1199.64 352.514 1205.49 354.111C1207.9 354.643 1211.91 354.394 1214.43 355.352C1215.74 355.743 1217.06 356.878 1215.81 357.836C1213.37 359.468 1208.58 359.503 1205.1 359.787C1194.38 360.603 1189.45 358.936 1192.61 350.918C1194.28 347.015 1194.49 342.296 1197.36 338.961C1200.63 335.414 1206.94 335.272 1212.23 335.272C1214.93 335.414 1220.35 335.555 1221.03 337.436L1220.99 337.542Z" fill="#fff7cf"/></svg>